<svg width="14" height="20" viewBox="0 0 14 20" fill="none" xmlns="http://www.w3.org/2000/svg">
<path fill-rule="evenodd" clip-rule="evenodd" d="M2.14812 20H11.8795L13.1033 8.05601H0.979439L2.14812 20ZM9.73303 2.97084V0.682303C9.73303 0.30516 9.44058 0 9.08081 0H4.94845C4.58814 0 4.29681 0.305732 4.29681 0.682303V2.93314C2.90078 3.09771 1.44789 3.41658 0 3.96115V6.06285H14V3.90513C14 3.90513 12.2911 3.28856 9.73192 2.97084H9.73303ZM8.43412 2.84515C7.52808 2.78172 6.55142 2.76458 5.52675 2.82572V1.61886C5.52675 1.43143 5.67019 1.27829 5.85117 1.27829H8.1069C8.28899 1.27829 8.43412 1.43143 8.43412 1.61886V2.84515Z" fill="#5F564F"/>
</svg>
