<?xml version="1.0" encoding="utf-8"?>
<!-- Generator: Adobe Illustrator 16.0.0, SVG Export Plug-In . SVG Version: 6.00 Build 0)  -->
<!DOCTYPE svg PUBLIC "-//W3C//DTD SVG 1.1//EN" "http://www.w3.org/Graphics/SVG/1.1/DTD/svg11.dtd">
<svg version="1.1" id="Layer_1" xmlns="http://www.w3.org/2000/svg" xmlns:xlink="http://www.w3.org/1999/xlink" x="0px" y="0px"
	 width="250px" height="500px" viewBox="0 0 250 500" enable-background="new 0 0 250 500" xml:space="preserve">
<g>
	<path d="M176.802,290.382H90.875c-6.092,0-11.048,4.955-11.048,11.048v11.293h84.442c8.941,0,16.216,7.274,16.216,16.216v48.585
		c0,8.942-7.274,16.217-16.216,16.217H79.827v11.293c0,6.092,4.956,11.047,11.048,11.047h85.927c6.091,0,11.048-4.955,11.048-11.047
		V301.43C187.85,295.337,182.893,290.382,176.802,290.382z"/>
	<path d="M117.389,342.184h-2.455v22.096h2.455c3.384,0,6.138-2.755,6.138-6.139v-9.819
		C123.527,344.938,120.773,342.184,117.389,342.184z"/>
	<path d="M87.929,342.184h-3.683v9.82h3.683c2.707,0,4.91-2.203,4.91-4.91C92.838,344.386,90.636,342.184,87.929,342.184z"/>
	<path d="M173.119,377.523v-48.585c0-4.88-3.971-8.851-8.851-8.851H71.001c-4.88,0-8.851,3.971-8.851,8.851v48.585
		c0,4.881,3.97,8.852,8.851,8.852h93.268C169.148,386.375,173.119,382.404,173.119,377.523z M87.929,359.369h-3.683v8.592
		c0,2.034-1.649,3.684-3.683,3.684c-2.034,0-3.683-1.649-3.683-3.684v-29.46c0-2.033,1.648-3.683,3.683-3.683h7.365
		c6.768,0,12.275,5.507,12.275,12.275S94.696,359.369,87.929,359.369z M130.892,358.141c0,7.446-6.057,13.504-13.502,13.504h-6.138
		c-2.034,0-3.683-1.649-3.683-3.684v-29.46c0-2.033,1.648-3.683,3.683-3.683h6.138c7.446,0,13.502,6.058,13.502,13.503V358.141z
		 M154.706,342.184h-9.084v7.365h7.365c2.033,0,3.683,1.649,3.683,3.683s-1.649,3.683-3.683,3.683h-7.365v11.047
		c0,2.034-1.648,3.684-3.683,3.684c-2.033,0-3.682-1.649-3.682-3.684v-29.46c0-2.033,1.648-3.683,3.682-3.683h12.767
		c2.033,0,3.683,1.649,3.683,3.683S156.739,342.184,154.706,342.184z"/>
</g>
<g>
	<path fill="#FFFFFF" d="M176.802,81.218H90.875c-6.092,0-11.048,4.955-11.048,11.048v11.293h84.442
		c8.941,0,16.216,7.274,16.216,16.216v48.585c0,8.942-7.274,16.217-16.216,16.217H79.827v11.293c0,6.092,4.956,11.047,11.048,11.047
		h85.927c6.091,0,11.048-4.955,11.048-11.047V92.266C187.85,86.173,182.893,81.218,176.802,81.218z"/>
	<path fill="#FFFFFF" d="M117.389,133.02h-2.455v22.096h2.455c3.384,0,6.138-2.755,6.138-6.139v-9.819
		C123.527,135.773,120.773,133.02,117.389,133.02z"/>
	<path fill="#FFFFFF" d="M87.929,133.02h-3.683v9.82h3.683c2.707,0,4.91-2.203,4.91-4.91
		C92.838,135.222,90.636,133.02,87.929,133.02z"/>
	<path fill="#FFFFFF" d="M173.119,168.359v-48.585c0-4.88-3.971-8.851-8.851-8.851H71.001c-4.88,0-8.851,3.971-8.851,8.851v48.585
		c0,4.881,3.97,8.852,8.851,8.852h93.268C169.148,177.211,173.119,173.24,173.119,168.359z M87.929,150.205h-3.683v8.592
		c0,2.034-1.649,3.684-3.683,3.684c-2.034,0-3.683-1.649-3.683-3.684v-29.46c0-2.033,1.648-3.683,3.683-3.683h7.365
		c6.768,0,12.275,5.507,12.275,12.275S94.696,150.205,87.929,150.205z M130.892,148.977c0,7.446-6.057,13.504-13.502,13.504h-6.138
		c-2.034,0-3.683-1.649-3.683-3.684v-29.46c0-2.033,1.648-3.683,3.683-3.683h6.138c7.446,0,13.502,6.058,13.502,13.503V148.977z
		 M154.706,133.02h-9.084v7.365h7.365c2.033,0,3.683,1.649,3.683,3.683s-1.649,3.683-3.683,3.683h-7.365v11.047
		c0,2.034-1.648,3.684-3.683,3.684c-2.033,0-3.682-1.649-3.682-3.684v-29.46c0-2.033,1.648-3.683,3.682-3.683h12.767
		c2.033,0,3.683,1.649,3.683,3.683S156.739,133.02,154.706,133.02z"/>
</g>
</svg>
