<svg width="200" height="200" viewBox="0 0 200 200" fill="none" xmlns="http://www.w3.org/2000/svg">
<path d="M25 5C25 2.23857 27.2386 0 30 0H170C172.761 0 175 2.23858 175 5V192.018C175 193.194 172.791 193.593 172.334 192.508C165.988 177.463 146.864 145 100 145C53.1357 145 34.0124 177.463 27.666 192.508C27.2087 193.593 25 193.194 25 192.018V5Z" fill="#408193"/>
<path d="M25 5C25 2.23857 27.2386 0 30 0H170C172.761 0 175 2.23858 175 5V192.018C175 193.194 172.791 193.593 172.334 192.508C165.988 177.463 146.864 145 100 145C53.1357 145 34.0124 177.463 27.666 192.508C27.2087 193.593 25 193.194 25 192.018V5Z" fill="#408193"/>
</svg>
