<svg width="200" height="200" viewBox="0 0 200 200" fill="none" xmlns="http://www.w3.org/2000/svg">
<path d="M25 5C25 2.23857 27.2386 0 30 0H170C172.761 0 175 2.23858 175 5V197.586C175 198.477 173.923 198.923 173.293 198.293L154 179L138.232 199.068C137.85 199.555 137.12 199.58 136.705 199.121L118.5 179L100.74 199.16C100.346 199.608 99.6491 199.612 99.2485 199.169L81 179L63.2504 199.148C62.8522 199.6 62.1478 199.6 61.7496 199.148L44 179L26.7415 198.075C26.1275 198.754 25 198.319 25 197.404V5Z" fill="#408193"/>
</svg>
